# xmcd
#
# Track frame offsets: 
#        182
#        22280
#        37240
#        49170
#        64660
#        80467
#        103260
#        119465
#        134175
#        157955
#
# Disc length: 2251 seconds
#
# Revision: 5
# Processed by: cddbd v1.5.1PL0 Copyright (c) Steve Scherf et al.
# Submitted via: ExactAudioCopy v0.90b4
#
DISCID=9508c90a
DTITLE=B.B. King - Paying The Cost To Be The Boss
DYEAR=1997
DGENRE=Blues
TTITLE0=The Thrill Is Gone
TTITLE1=B.B. Boogie
TTITLE2=Paying The Cost To Be The Boss
TTITLE3=How Blue Can You Get 
TTITLE4=The Letter
TTITLE5=Everyday I Have The Blues
TTITLE6=It's My Own Fault
TTITLE7=Mr. Pawnbroker
TTITLE8=You've Done Lost Your Good Thing Now
TTITLE9=Catfish Blues
EXTD=YEAR: 1997 ID3G: 0
EXTT0=
EXTT1=
EXTT2=
EXTT3=
EXTT4=
EXTT5=
EXTT6=
EXTT7=
EXTT8=
EXTT9=
PLAYORDER=
